<svg xmlns="http://www.w3.org/2000/svg" viewBox="0 0 512 512" width="32" height="32">
  <!-- Rounded square matching the website logo container in bg-forest -->
  <rect width="512" height="512" rx="112" fill="#184D32"/>
  <!-- FontAwesome 6 fa-cheese icon in creamWhite, scaled and centered -->
  <g transform="translate(89.6, 89.6) scale(0.65)">
    <path fill="#FFFDF7" d="M0 256C0 114.6 114.6 0 256 0c74 0 141 31.4 188.7 81.7c10.4 11 9.4 28.3-2.2 38.1c-13.8 11.6-32.5 17-50.8 14.8c-77.7-9.3-152.1 36.2-181 110.1C182.1 316.5 214.2 389 283 423.8c16.3 8.3 27 24.9 28.2 43.1c1.2 18.2-7 35.4-21.7 46c-10.3 7.4-22.3 12.8-35 15.8c-12.7 3-25.9 4.5-39.2 4.5C114.6 512 0 397.4 0 256zm437.2-76.4c5.1-13.2 16.4-22.9 30.3-25c19-2.8 36.3 9.4 39.4 28.4c.5 3.2 .5 6.4 0 9.6c-4.8 30.6-21.7 57.5-46.7 74.8c-18.7 13-43.5 12.6-61.7-.8c-12.1-8.9-17-24.8-12.2-39.3c3-9.1 8.9-16.7 16.7-21.7c8.5-5.5 12-16.2 8.3-25.7c-3.6-9.5-13.9-14.5-23.4-10.9s-14.5 13.9-10.9 23.4c5 13.1 2.3 28.1-7.1 38.4c-12.6 13.8-32.9 17.5-49.6 9.1c-22.7-11.4-33.2-38.3-24.3-62.7c7.2-19.8 25.8-33.1 46.9-34c14.2-.6 27.2 7 34 19.3c5.1 9.3 16.8 12.9 26.2 8.1s12.9-16.8 8.1-26.2c-11.1-20.2-32.5-32.9-55.6-33.2c-34.4-.5-64.8 21.2-76.6 53.6c-14.7 40.2 2.7 85 41.3 104.5c29.8 15 65 14.5 94.4-1.4c39.6-21.5 64.9-63.5 66.8-109.1C512 147.2 481.5 109 437.2 179.6z"/>
  </g>
</svg>
