<svg xmlns="http://www.w3.org/2000/svg" viewBox="0 0 512 512" width="32" height="32">
  <!-- Rounded square matching the website logo container in bg-forest -->
  <rect width="512" height="512" rx="112" fill="#184D32"/>
  
  <!-- Outer elegant shield border -->
  <circle cx="256" cy="256" r="160" stroke="#FFFDF7" stroke-width="16" opacity="0.4" fill="none" />
  
  <!-- New professional logo mark: Goat and botanical stamp motif -->
  <g stroke="#FFFDF7" stroke-width="24" stroke-linecap="round" stroke-linejoin="round" fill="none">
    <!-- Elegant Goat Horns -->
    <path d="M 256 216 c -12.8 -35.2 -35.2 -56 -60.8 -56 c -19.2 0 -28.8 12.8 -28.8 28.8 c 0 35.2 41.6 51.2 57.6 59.2" />
    <path d="M 256 216 c 12.8 -35.2 35.2 -56 60.8 -56 c 19.2 0 28.8 12.8 28.8 28.8 c 0 35.2 -41.6 51.2 -57.6 59.2" />
    <!-- Goat Face / Muzzle -->
    <path d="M 208 248 c 0 0 8 -24 48 -24 s 48 24 48 24 l -40 104 c -3.2 8 -12.8 8 -16 0 L 208 248 z" />
    <!-- Leaves / Ears detailing representing organic nature -->
    <path d="M 168 240 c -12.8 1.6 -24 12.8 -24 24 s 12.8 16 24 8 c 9.6 -6.4 16 -19.2 16 -32" />
    <path d="M 344 240 c 12.8 1.6 24 12.8 24 24 s -12.8 16 -24 8 c -9.6 -6.4 -16 -19.2 -16 -32" />
  </g>
</svg>
